<svg width="59" height="69" viewBox="0 0 59 69" fill="none" xmlns="http://www.w3.org/2000/svg">
<g clip-path="url(#clip0_343_190)">
<path d="M25.2004 46.1102C25.1182 46.1152 25.0361 46.1227 24.9514 46.1227C23.3202 46.1227 21.689 46.1227 20.0578 46.1252C19.8809 46.1252 19.7539 46.0751 19.6269 45.9498C16.753 43.0563 13.8766 40.1654 11.0002 37.2769C8.90576 35.1726 6.81133 33.0707 4.71691 30.9664C3.23512 29.4783 1.75334 27.9902 0.274041 26.5022C0.184387 26.412 0.099713 26.3168 0.00756836 26.2191C0.0972227 26.1139 0.196839 26.1389 0.284002 26.1389C0.662543 26.1364 1.03859 26.1389 1.41713 26.1389C2.63494 26.1389 3.85523 26.1489 5.07304 26.1314C5.35943 26.1289 5.55119 26.2341 5.74544 26.4295C10.4199 31.1392 15.0994 35.8465 19.7788 40.5512C21.5321 42.3148 23.2878 44.0785 25.041 45.8421C25.1058 45.9072 25.1656 45.9799 25.2278 46.0475C25.2179 46.0676 25.2104 46.0876 25.2004 46.1076V46.1102Z" fill="#4C4C4C"/>
<path d="M16.2472 46.5387H15.9932C14.4143 46.5387 12.8354 46.5337 11.2565 46.5437C11.0398 46.5437 10.8854 46.4786 10.736 46.3283C8.46476 44.0386 6.18853 41.7513 3.91231 39.4666C2.80658 38.3568 1.70084 37.2495 0.595103 36.1397C0.425756 35.9694 0.26388 35.794 0.0671387 35.5886C0.174226 35.5736 0.236486 35.556 0.298746 35.556C1.92996 35.556 3.55868 35.556 5.18989 35.551C5.38663 35.551 5.50866 35.6437 5.63318 35.769C6.51229 36.6533 7.3914 37.5376 8.273 38.4245C9.61283 39.7722 10.9552 41.1225 12.295 42.4703C13.5626 43.7454 14.8302 45.0206 16.0978 46.2957C16.1576 46.3558 16.2124 46.4185 16.2672 46.4811C16.2597 46.5011 16.2522 46.5212 16.2448 46.5412L16.2472 46.5387Z" fill="#2D6DAC"/>
<path d="M7.14983 68.9673C7.05021 68.9799 6.98297 68.9924 6.91573 68.9924C6.48738 68.9924 6.05654 68.9874 5.62819 68.9974C5.45137 69.0024 5.35923 68.9247 5.29946 68.7719C4.94582 67.8751 4.59219 66.9807 4.23606 66.0839C4.22859 66.0688 4.22361 66.0513 4.21863 66.0363C4.08415 65.7031 4.07418 65.6956 3.70561 65.6956C3.13032 65.6956 2.55504 65.6956 1.97976 65.6956C1.91003 65.6956 1.84279 65.6956 1.77306 65.7031C1.65352 65.7156 1.58628 65.7807 1.5813 65.906C1.5813 65.9762 1.57881 66.0438 1.57881 66.1139C1.57881 66.9607 1.57881 67.8074 1.57632 68.6517C1.57632 68.7519 1.56386 68.8546 1.55639 68.9799C1.0359 69.0074 0.535331 69.0024 0.0447223 68.9874C-0.0150472 68.7444 -0.0225184 60.7729 0.0347607 60.4948C0.144338 60.4873 0.258896 60.4748 0.375945 60.4748C2.22133 60.4748 4.06671 60.4873 5.9121 60.4648C6.4301 60.4573 6.73642 60.6927 6.94312 61.1186C7.09504 61.4318 7.1822 61.7675 7.18469 62.1182C7.18967 62.7144 7.18469 63.3107 7.18469 63.9069C7.18469 64.3002 7.105 64.6785 6.93814 65.0342C6.77876 65.3774 6.54715 65.6355 6.14121 65.6881C5.91957 65.7156 5.89467 65.7858 5.97436 65.9862C6.33297 66.8805 6.69159 67.7749 7.04772 68.6692C7.08258 68.7569 7.105 68.8471 7.14484 68.9723L7.14983 68.9673ZM3.58607 62.2685C3.01328 62.2685 2.43799 62.2685 1.8652 62.2685C1.61367 62.2685 1.58628 62.3011 1.58379 62.5541C1.5813 62.9073 1.57881 63.2605 1.58379 63.6138C1.58628 63.8242 1.63609 63.8693 1.8403 63.8868C1.8926 63.8919 1.9424 63.8893 1.9947 63.8893C3.0581 63.8893 4.11901 63.8893 5.18241 63.8893C5.25961 63.8893 5.33682 63.8893 5.41402 63.8793C5.52858 63.8643 5.60578 63.8017 5.60827 63.6764C5.60827 63.2706 5.60827 62.8672 5.60827 62.4614C5.60827 62.3336 5.53107 62.2785 5.41153 62.271C5.35176 62.2685 5.29199 62.2685 5.23222 62.2685C4.68433 62.2685 4.13644 62.2685 3.58856 62.2685H3.58607Z" fill="#4C4C4C"/>
<path d="M20.5632 67.309C20.7002 67.299 20.8073 67.2865 20.9169 67.2865C22.5232 67.2865 24.127 67.2865 25.7333 67.2865C26.0255 67.2865 26.1716 67.1387 26.1716 66.8431C26.1716 66.55 26.1741 66.2569 26.1716 65.9612C26.1666 65.7458 26.1268 65.7107 25.9101 65.6982C25.8329 65.6932 25.7557 65.6982 25.6785 65.6982C24.4931 65.6982 23.3101 65.6982 22.1247 65.6982C22.04 65.6982 21.9529 65.6982 21.8682 65.6982C21.3004 65.7007 21.0065 65.5003 20.7774 64.9341C20.6355 64.5859 20.5682 64.2252 20.5657 63.8494C20.5607 63.3133 20.5657 62.7797 20.5657 62.2436C20.5657 61.8753 20.633 61.5221 20.7849 61.1889C20.8596 61.0261 20.9592 60.8707 21.0738 60.7329C21.2157 60.5626 21.4075 60.4724 21.6391 60.4724C23.3301 60.4724 25.021 60.4749 26.712 60.4724C26.9287 60.4724 27.0955 60.5576 27.235 60.7054C27.4367 60.9233 27.5911 61.1689 27.6459 61.467C27.6808 61.6624 27.7331 61.8553 27.748 62.0507C27.763 62.231 27.7231 62.2586 27.5438 62.2686C27.4741 62.2711 27.4068 62.2686 27.3371 62.2686C25.7482 62.2686 24.1619 62.2686 22.573 62.2686C22.1621 62.2686 22.1571 62.2736 22.1546 62.687C22.1546 62.9801 22.1521 63.2732 22.1546 63.5688C22.1571 63.8318 22.2119 63.882 22.4759 63.8895C22.5456 63.8895 22.6128 63.8895 22.6826 63.8895C23.8854 63.8895 25.0858 63.8895 26.2887 63.8895C26.3833 63.8895 26.4779 63.892 26.5726 63.8895C26.9885 63.8794 27.2798 64.0799 27.4641 64.4381C27.6235 64.7462 27.7455 65.0694 27.748 65.4226C27.753 66.079 27.758 66.7353 27.7505 67.3917C27.748 67.7349 27.6409 68.0531 27.4741 68.3512C27.24 68.7746 26.8814 68.97 26.3982 68.9675C24.904 68.9624 23.4098 68.9624 21.918 68.9675C21.3278 68.9675 20.9517 68.6443 20.765 68.1533C20.6628 67.8877 20.618 67.6122 20.5682 67.304L20.5632 67.309Z" fill="#4C4C4C"/>
<path d="M43.5819 64.7161C43.5819 65.5803 43.5844 66.4421 43.5819 67.3064C43.5794 67.7298 43.4574 68.1206 43.2308 68.4788C43.0266 68.8045 42.7327 68.9673 42.3517 68.9673C40.7727 68.9673 39.1938 68.9673 37.6149 68.9673C37.2115 68.9673 36.9077 68.7845 36.7109 68.4312C36.4893 68.0304 36.3896 67.5995 36.3896 67.1411C36.3896 66.0288 36.3896 64.914 36.3896 63.8017C36.3896 63.2505 36.3896 62.6969 36.3896 62.1458C36.3921 61.7124 36.5092 61.3115 36.7408 60.9458C36.94 60.6326 37.2165 60.4673 37.595 60.4673C39.1913 60.4723 40.7877 60.4723 42.3815 60.4673C42.785 60.4673 43.0664 60.6502 43.2557 60.9934C43.4624 61.3691 43.5794 61.77 43.5769 62.2034C43.5769 63.0401 43.5769 63.8768 43.5769 64.7161H43.5819ZM42.0005 64.7912C42.0005 64.0497 42.0005 63.3056 42.0005 62.5641C42.0005 62.3186 41.9706 62.2835 41.7415 62.2835C40.5735 62.281 39.408 62.281 38.24 62.2835C38.0034 62.2835 37.9785 62.3136 37.976 62.5591C37.9711 62.9048 37.976 63.2505 37.976 63.5962C37.976 64.7186 37.976 65.8409 37.976 66.9632C37.976 67.2788 37.9935 67.2939 38.3122 67.3014C38.3297 67.3014 38.3471 67.3014 38.3645 67.3014C39.4553 67.3014 40.5436 67.3014 41.6344 67.3014C41.7042 67.3014 41.7714 67.3014 41.8411 67.2939C41.9407 67.2839 41.9955 67.2288 42.0005 67.126C42.003 67.0559 42.0055 66.9882 42.0055 66.9181C42.0055 66.2091 42.0055 65.5027 42.0055 64.7937L42.0005 64.7912Z" fill="#4C4C4C"/>
<path d="M45.781 62.8022C45.7561 62.9174 45.7312 62.985 45.7262 63.0552C45.7163 63.2631 45.7113 63.4685 45.7113 63.6765C45.7113 65.2572 45.7113 66.8355 45.7113 68.4163C45.7113 68.4939 45.7113 68.5716 45.7113 68.6492C45.7063 68.9574 45.6938 68.9699 45.39 68.9699C45.1335 68.9699 44.8745 68.9699 44.618 68.9699C44.5333 68.9699 44.4511 68.9624 44.344 68.9574C44.3341 68.8496 44.3167 68.757 44.3167 68.6668C44.3167 66.094 44.3167 63.5211 44.3167 60.9483C44.3167 60.6577 44.3291 60.6452 44.6255 60.6452C45.2605 60.6452 45.8956 60.6502 46.5306 60.6402C46.7249 60.6377 46.8295 60.7204 46.9092 60.8832C47.599 62.3086 48.2913 63.7316 48.9837 65.1545C49.2128 65.6255 49.4394 66.099 49.6735 66.5699C49.7084 66.6426 49.7706 66.7002 49.8503 66.8029C49.8802 66.7002 49.9026 66.6476 49.9076 66.595C49.9151 66.5098 49.9101 66.4221 49.9101 66.337C49.9101 64.5758 49.9101 62.8147 49.9101 61.0535C49.9101 60.7796 50.0495 60.6427 50.3285 60.6427C50.5675 60.6427 50.8091 60.6402 51.0482 60.6427C51.2549 60.6477 51.2798 60.6753 51.2898 60.8882C51.2923 60.9408 51.2898 60.9909 51.2898 61.0435C51.2898 63.5462 51.2898 66.0514 51.2898 68.554C51.2898 68.6793 51.2773 68.8071 51.2674 68.9524C51.1478 68.9574 51.0557 68.9674 50.9635 68.9674C50.3534 68.9674 49.7457 68.9574 49.1356 68.9749C48.9114 68.9799 48.7919 68.8998 48.6998 68.7069C48.3586 67.9929 48.0049 67.2839 47.6613 66.5724C47.1383 65.4877 46.6178 64.4005 46.0948 63.3157C46.035 63.1905 45.9777 63.0652 45.913 62.945C45.8906 62.9049 45.8507 62.8748 45.7785 62.8022H45.781Z" fill="#4C4C4C"/>
<path d="M51.9473 64.7287C51.9473 63.4861 51.9473 62.2435 51.9473 60.9985C51.9473 60.9634 51.9473 60.9283 51.9473 60.8958C51.9498 60.5676 51.9672 60.55 52.3034 60.55C52.8787 60.55 53.454 60.55 54.0292 60.55C55.5559 60.55 57.085 60.55 58.6116 60.55C58.9976 60.55 58.9976 60.5501 59.0001 60.9358C59.0001 61.2991 59.0001 61.6598 59.0001 62.0231C59.0001 62.2836 58.9777 62.3037 58.7211 62.3062C57.588 62.3062 56.4549 62.3062 55.3218 62.3062C54.8336 62.3062 54.343 62.3062 53.8549 62.3062C53.5411 62.3062 53.4888 62.3563 53.4888 62.6619C53.4888 64.0347 53.4888 65.4076 53.4888 66.7804C53.4888 67.071 53.5386 67.1161 53.845 67.1161C55.399 67.1161 56.9505 67.1161 58.5045 67.1161C58.5817 67.1161 58.6589 67.1161 58.7361 67.1161C58.9627 67.1236 58.9976 67.1512 59.0001 67.3691C59.0051 67.7925 59.0051 68.2159 59.0001 68.6393C59.0001 68.8522 58.9727 68.8747 58.761 68.8823C58.5991 68.8873 58.4348 68.8823 58.2729 68.8823C56.298 68.8823 54.3256 68.8823 52.3507 68.8823C52.0851 68.8823 51.9522 68.7495 51.9522 68.4839C51.9522 67.2313 51.9522 65.9813 51.9522 64.7287H51.9473Z" fill="#4C4C4C"/>
<path d="M15.3009 67.3014C15.3407 67.5168 15.2685 67.6897 15.2187 67.8576C15.1166 68.2058 14.9921 68.5465 14.6584 68.7544C14.5139 68.8446 14.362 68.8822 14.1951 68.8822C13.7842 68.8822 13.3708 68.8822 12.9599 68.8822C11.8019 68.8822 10.6413 68.8671 9.48331 68.8872C8.96282 68.8972 8.6565 68.6642 8.44233 68.2108C8.25804 67.82 8.22566 67.4116 8.22068 66.9983C8.21072 65.4275 8.21321 63.8543 8.22068 62.2835C8.22068 61.8051 8.29788 61.3416 8.58428 60.9333C8.78849 60.6427 9.05995 60.4848 9.40611 60.4848C11.2938 60.4798 13.184 60.4823 15.0718 60.4848C15.3183 60.4848 15.3308 60.4999 15.3333 60.7529C15.3357 61.1763 15.3357 61.5996 15.3333 62.023C15.3333 62.2735 15.3208 62.286 15.0693 62.2886C13.9884 62.2886 12.9051 62.2886 11.8243 62.2886C11.2565 62.2886 10.6912 62.2886 10.1233 62.2886C9.81952 62.2886 9.78963 62.3136 9.78963 62.6042C9.78963 64.0472 9.78963 65.4877 9.78963 66.9306C9.78963 66.9908 9.79212 67.0509 9.80457 67.111C9.82201 67.2062 9.87929 67.2663 9.9789 67.2688C10.0636 67.2713 10.1507 67.2738 10.2354 67.2738C11.8143 67.2738 13.3957 67.2738 14.9746 67.2738C15.0817 67.2738 15.1888 67.2889 15.3009 67.2989V67.3014Z" fill="#4C4C4C"/>
<path d="M32.0813 60.4147C33.1373 60.4147 34.1932 60.4147 35.2466 60.4147C35.3238 60.4147 35.401 60.4122 35.4782 60.4172C35.6426 60.4297 35.675 60.4573 35.6775 60.6226C35.6825 61.0886 35.6849 61.5545 35.6775 62.0205C35.675 62.2059 35.6376 62.2309 35.406 62.2334C34.7361 62.2359 34.0662 62.2334 33.3988 62.2334C33.0501 62.2334 32.8758 62.408 32.8758 62.757C32.8758 64.691 32.8758 66.625 32.8758 68.559C32.8758 68.8312 32.7363 68.9682 32.4574 68.9699C32.1735 68.9699 31.8921 68.9699 31.6082 68.9699C31.2794 68.9699 31.267 68.9573 31.2645 68.6141C31.2645 67.6722 31.2645 66.7327 31.2645 65.7908C31.2645 64.7712 31.2645 63.7541 31.2645 62.7345C31.2645 62.6744 31.2645 62.6142 31.2645 62.5541C31.257 62.2785 31.2222 62.2359 30.9482 62.2359C30.2609 62.2334 29.576 62.2359 28.8887 62.2359C28.6081 62.2359 28.4678 62.0932 28.4678 61.8076C28.4678 61.4619 28.4678 61.1161 28.4678 60.7729C28.4678 60.4222 28.4728 60.4172 28.8339 60.4172C29.9147 60.4172 30.9955 60.4172 32.0764 60.4172L32.0813 60.4147Z" fill="#4C4C4C"/>
<path d="M0.0472188 9.37938C0.0372572 9.25412 0.0223148 9.16393 0.0223148 9.07124C0.0223148 6.15272 0.0198244 3.23419 0.017334 0.315662C0.017334 0.298125 0.017334 0.280589 0.017334 0.263053C0.0248052 0.0275666 0.0397476 0.0100304 0.263883 9.713e-06C0.348557 -0.00249546 0.435721 9.713e-06 0.520394 9.713e-06C4.72668 9.713e-06 8.93296 9.713e-06 13.1392 9.713e-06C28.2335 9.713e-06 43.3278 9.713e-06 58.4196 9.713e-06C58.9825 9.713e-06 58.9376 -0.0551041 58.9376 0.50856C58.9376 16.8999 58.9376 33.2913 58.9376 49.6801V50.0859C58.9202 50.096 58.9003 50.1035 58.8829 50.1135C58.8156 50.0534 58.7484 49.9958 58.6836 49.9331C57.7672 49.0112 56.8507 48.0918 55.9342 47.1699C55.7101 46.9445 55.4884 46.7165 55.2593 46.4935C55.1672 46.4033 55.1174 46.3031 55.1248 46.1729C55.1298 46.0702 55.1248 45.9649 55.1248 45.8622C55.1248 32.0612 55.1248 18.2627 55.1248 4.46172C55.1248 4.34899 55.1248 4.23626 55.1248 4.12603C55.1174 3.8705 55.08 3.83293 54.8185 3.82541C54.7065 3.8229 54.5944 3.82541 54.4848 3.82541C39.6918 3.82541 24.9014 3.82541 10.1084 3.82541C8.15844 3.82541 6.21095 3.82541 4.26097 3.82541C3.83013 3.82541 3.82017 3.83543 3.82017 4.27885C3.82017 5.84959 3.82017 7.42284 3.82017 8.99358C3.82017 9.25078 3.69233 9.37938 3.43665 9.37938C2.41559 9.37938 1.39452 9.37938 0.37097 9.37938C0.271354 9.37938 0.169248 9.37938 0.0472188 9.37938Z" fill="#2D6DAC"/>
<path d="M44.334 37.0715C44.6304 37.3671 44.8794 37.6126 45.126 37.8631C46.0175 38.76 46.9066 39.6593 47.8031 40.5512C47.955 40.7015 48.0248 40.8568 48.0248 41.0748C48.0148 42.1971 48.0173 43.3194 48.0223 44.4442C48.0248 45.3661 47.305 46.0826 46.3911 46.0801C40.3992 46.0776 34.4048 46.0801 28.4129 46.0776C27.5736 46.0776 26.9859 45.5565 26.8066 44.7498C26.7767 44.6171 26.7892 44.4743 26.7892 44.3365C26.7892 41.0472 26.7842 37.7554 26.7842 34.4661C26.7842 29.9393 26.7842 25.4149 26.7842 20.8881C26.7842 18.4355 26.7867 15.9829 26.7892 13.5304C26.7892 12.8615 27.098 12.3805 27.6658 12.0573C27.86 11.9471 28.0717 11.8744 28.3033 11.8845C28.398 11.8895 28.4926 11.8845 28.5872 11.8845C34.4695 11.8845 40.3494 11.8845 46.2317 11.8845C46.4882 11.8845 46.7422 11.877 46.9888 11.9847C47.437 12.1776 47.7608 12.4832 47.9277 12.9517C47.9974 13.1496 48.0273 13.35 48.0273 13.5604C48.0248 15.9704 48.0223 18.3804 48.0273 20.7904C48.0273 21.5519 47.6711 22.073 47.0012 22.3761C46.8045 22.4638 46.5679 22.4814 46.3487 22.4864C45.766 22.5014 45.1807 22.4939 44.598 22.4914C44.3514 22.4914 44.3216 22.4588 44.3216 22.1983C44.3191 21.4993 44.3216 20.8004 44.3216 20.0989C44.3216 19.0618 44.3216 18.0272 44.3216 16.99C44.3216 16.5441 44.1398 16.1858 43.7637 15.9428C43.5545 15.8076 43.3229 15.7099 43.0639 15.7124C43.0116 15.7124 42.9618 15.7124 42.9095 15.7124C39.2436 15.7124 35.5778 15.7124 31.9119 15.7124C31.5359 15.7124 31.2096 15.8201 30.9182 16.0631C30.6393 16.2961 30.5248 16.6017 30.5073 16.9474C30.4899 17.3007 30.5023 17.6564 30.5023 18.0096C30.5023 19.5979 30.4749 21.1887 30.5073 22.777C30.6119 27.7247 30.5372 32.6724 30.5422 37.6201C30.5422 38.7324 30.5073 39.8447 30.5023 40.9595C30.5023 41.3729 30.6567 41.7136 30.9805 41.9716C31.2021 42.1495 31.4611 42.2271 31.7376 42.2597C31.8223 42.2697 31.9094 42.2647 31.9941 42.2647C35.6077 42.2647 39.2237 42.2647 42.8373 42.2647C43.0589 42.2647 43.2731 42.2447 43.4923 42.167C43.9654 41.9967 44.3166 41.5432 44.3191 40.9745C44.3216 39.9975 44.3191 39.023 44.3191 38.046C44.3191 37.813 44.3191 37.58 44.3191 37.3471C44.3191 37.2794 44.329 37.2143 44.339 37.0815L44.334 37.0715Z" fill="#2D6DAC"/>
<path d="M55.1871 50.384C55.2494 50.4416 55.3141 50.4967 55.3739 50.5568C56.4971 51.6866 57.6177 52.8165 58.7459 53.9438C58.8853 54.0841 58.9451 54.2294 58.9426 54.4248C58.9351 55.0636 58.9426 55.7024 58.9376 56.3413C58.9376 56.6143 58.9202 56.6294 58.6413 56.6319C58.5715 56.6319 58.5043 56.6319 58.4346 56.6319C39.1365 56.6319 19.8384 56.6319 0.537827 56.6319C0.425759 56.6319 0.313691 56.6319 0.204114 56.6319C0.0771035 56.6319 0.017334 56.5642 0.017334 56.439C0.017334 56.3688 0.017334 56.3012 0.017334 56.231C0.017334 53.4328 0.017334 50.6345 0.017334 47.8362C0.017334 47.5673 0.148495 47.4329 0.410817 47.4329C1.41445 47.4329 2.42057 47.4329 3.4242 47.4329C3.45906 47.4329 3.49393 47.4329 3.5263 47.4329C3.80025 47.4379 3.81768 47.4504 3.81768 47.731C3.81768 49.2591 3.81768 50.7873 3.81768 52.3154C3.81768 52.814 3.82266 52.819 4.32323 52.819C21.0811 52.819 37.839 52.819 54.5969 52.819C54.6815 52.819 54.7687 52.8215 54.8534 52.814C55.0651 52.7964 55.1223 52.7388 55.1248 52.5209C55.1298 52.08 55.1248 51.639 55.1248 51.2006C55.1248 50.9351 55.1248 50.6695 55.1248 50.404C55.1448 50.3965 55.1647 50.3915 55.1846 50.384H55.1871Z" fill="#2D6DAC"/>
<path d="M12.4744 29.7589C12.574 29.7539 12.6736 29.7463 12.7757 29.7463C13.8391 29.7463 14.905 29.7463 15.9684 29.7463C16.2772 29.7463 16.586 29.7138 16.8674 29.5635C17.1787 29.3956 17.4327 29.1727 17.4875 28.7944C17.5149 28.599 17.5598 28.4036 17.5598 28.2107C17.5647 24.5682 17.5647 20.9231 17.5598 17.2806C17.5598 17.0326 17.5249 16.7796 17.4651 16.5416C17.3854 16.2334 17.1588 16.0205 16.8873 15.8802C16.6607 15.765 16.4117 15.7074 16.1452 15.7074C12.4719 15.7149 8.79853 15.7149 5.12271 15.7074C4.83631 15.7074 4.5798 15.78 4.34072 15.9203C3.97215 16.1332 3.78038 16.4689 3.73307 16.8898C3.71812 17.01 3.72062 17.1303 3.72062 17.253C3.72062 18.7637 3.72062 20.2743 3.72062 21.7849C3.72062 22.2258 3.46161 22.4914 3.02579 22.4939C2.60492 22.4964 2.18404 22.4989 1.76316 22.4939C1.37217 22.4889 1.0011 22.4112 0.67735 22.1657C0.266435 21.8551 0.0298468 21.4392 0.0273564 20.9306C0.0173948 18.4255 0.0198852 15.9228 0.024866 13.4176C0.024866 12.8114 0.475628 12.2327 1.03099 12.0022C1.23271 11.9195 1.43941 11.887 1.65857 11.887C7.65046 11.8895 13.6424 11.887 19.6318 11.887C20.3166 11.887 20.8097 12.2076 21.1086 12.8189C21.2256 13.0569 21.2804 13.3174 21.2779 13.593C21.2729 16.6142 21.2754 19.638 21.2779 22.6592C21.2779 25.7155 21.2779 28.7718 21.2779 31.8281C21.2779 32.5997 20.9268 33.1409 20.2295 33.454C20.1523 33.4891 20.0676 33.5091 19.9829 33.5191C19.8385 33.5342 19.6915 33.5392 19.5471 33.5392C18.5086 33.5392 17.4701 33.5367 16.4316 33.5442C16.2199 33.5442 16.0605 33.4866 15.9086 33.3313C14.8203 32.2265 13.7245 31.1317 12.6337 30.0319C12.569 29.9668 12.5092 29.8967 12.4495 29.8265C12.4594 29.804 12.4694 29.7814 12.4793 29.7614L12.4744 29.7589Z" fill="#2D6DAC"/>
<path d="M44.3438 29.9219C44.4484 30.0171 44.5232 30.0822 44.5929 30.1549C45.6662 31.2571 46.7396 32.3619 47.818 33.4592C47.9624 33.6045 48.0271 33.7548 48.0271 33.9602C48.0197 34.7969 48.0247 35.6337 48.0222 36.4704C48.0222 36.5556 48.0147 36.6382 48.0072 36.7835C47.9051 36.7059 47.8354 36.6658 47.7806 36.6082C46.6798 35.4959 45.5816 34.3811 44.4808 33.2688C44.3712 33.1586 44.314 33.0408 44.314 32.8805C44.3189 31.9661 44.314 31.0517 44.3165 30.1373C44.3165 30.0797 44.3314 30.0246 44.3463 29.9219H44.3438Z" fill="#2D6DAC"/>
<path d="M54.1014 63.9572C54.196 63.9522 54.2882 63.9421 54.3803 63.9421C55.6679 63.9421 56.9529 63.9421 58.2404 63.9421C58.2579 63.9421 58.2753 63.9421 58.2927 63.9421C58.5642 63.9471 58.5791 63.9597 58.5816 64.2403C58.5816 64.6361 58.5841 65.0344 58.5816 65.4302C58.5791 65.6782 58.5418 65.7158 58.2952 65.7158C56.9753 65.7158 55.6529 65.7158 54.333 65.7158C54.1089 65.7158 54.0715 65.6882 54.069 65.4979C54.064 65.0244 54.069 64.5484 54.0715 64.0749C54.0715 64.0499 54.084 64.0248 54.1039 63.9572H54.1014Z" fill="#4C4C4C"/>
</g>
<defs>
<clipPath id="clip0_343_190">
<rect width="59" height="69" fill="white"/>
</clipPath>
</defs>
</svg>
