<svg width="88" height="103" viewBox="0 0 88 103" fill="none" xmlns="http://www.w3.org/2000/svg">
<g clip-path="url(#clip0_343_159)">
<path d="M37.587 68.8312C37.4644 68.8387 37.3419 68.8499 37.2156 68.8499C34.7826 68.8499 32.3496 68.8499 29.9166 68.8537C29.6529 68.8537 29.4634 68.7789 29.274 68.5919C24.9875 64.2727 20.6972 59.9572 16.407 55.6454C13.2831 52.5041 10.1592 49.3666 7.03533 46.2253C4.82521 44.004 2.61509 41.7827 0.408681 39.5613C0.274959 39.4267 0.148667 39.2846 0.0112305 39.1388C0.144952 38.9817 0.293532 39.0191 0.423539 39.0191C0.988142 39.0154 1.54903 39.0191 2.11363 39.0191C3.93002 39.0191 5.75012 39.0341 7.5665 39.0079C7.99367 39.0041 8.27969 39.1612 8.56942 39.4529C15.5415 46.4834 22.521 53.5101 29.5006 60.5331C32.1156 63.1657 34.7343 65.7984 37.3493 68.4311C37.4459 68.5283 37.535 68.6368 37.6279 68.7378C37.613 68.7677 37.6019 68.7976 37.587 68.8275V68.8312Z" fill="white"/>
<path d="M24.2334 69.4708H23.8545C21.4995 69.4708 19.1445 69.4633 16.7895 69.4782C16.4664 69.4782 16.2361 69.381 16.0132 69.1566C12.6256 65.7386 9.23056 62.3244 5.83552 58.9138C4.18628 57.2572 2.53705 55.6043 0.887814 53.9477C0.635228 53.6934 0.393787 53.4316 0.100342 53.1249C0.260065 53.1025 0.352927 53.0763 0.445789 53.0763C2.87878 53.0763 5.30806 53.0763 7.74105 53.0688C8.03449 53.0688 8.2165 53.2072 8.40223 53.3942C9.71344 54.7143 11.0247 56.0344 12.3396 57.3582C14.338 59.3701 16.3401 61.3857 18.3385 63.3976C20.2292 65.3011 22.1198 67.2046 24.0105 69.108C24.0997 69.1978 24.1814 69.2913 24.2631 69.3847C24.252 69.4147 24.2408 69.4446 24.2297 69.4745L24.2334 69.4708Z" fill="white"/>
<path d="M10.6644 102.951C10.5158 102.97 10.4155 102.989 10.3152 102.989C9.6763 102.989 9.03369 102.981 8.3948 102.996C8.13107 103.004 7.99363 102.888 7.90449 102.66C7.37703 101.321 6.84957 99.9858 6.3184 98.647C6.30726 98.6246 6.29983 98.5984 6.2924 98.5759C6.09182 98.0786 6.07696 98.0673 5.52721 98.0673C4.66917 98.0673 3.81112 98.0673 2.95307 98.0673C2.84906 98.0673 2.74877 98.0673 2.64477 98.0786C2.46647 98.0973 2.36618 98.1945 2.35875 98.3815C2.35875 98.4862 2.35504 98.5872 2.35504 98.6919C2.35504 99.9559 2.35504 101.22 2.35132 102.48C2.35132 102.63 2.33275 102.783 2.32161 102.97C1.54528 103.011 0.798666 103.004 0.0669113 102.981C-0.0222365 102.618 -0.0333799 90.719 0.0520534 90.3039C0.215491 90.2927 0.386357 90.274 0.560939 90.274C3.31338 90.274 6.06581 90.2927 8.81825 90.259C9.59087 90.2478 10.0477 90.5994 10.356 91.2351C10.5826 91.7025 10.7126 92.2036 10.7164 92.7272C10.7238 93.6172 10.7164 94.5072 10.7164 95.3973C10.7164 95.9844 10.5975 96.5491 10.3486 97.0801C10.1109 97.5924 9.76545 97.9776 9.15998 98.0561C8.82939 98.0973 8.79225 98.202 8.91111 98.5011C9.446 99.8362 9.98089 101.171 10.5121 102.506C10.5641 102.637 10.5975 102.772 10.6569 102.959L10.6644 102.951ZM5.34892 92.9516C4.49458 92.9516 3.63654 92.9516 2.7822 92.9516C2.40704 92.9516 2.36618 93.0002 2.36247 93.3779C2.35875 93.9052 2.35504 94.4324 2.36247 94.9597C2.36618 95.2739 2.44047 95.3412 2.74506 95.3674C2.82306 95.3748 2.89735 95.3711 2.97536 95.3711C4.56145 95.3711 6.14382 95.3711 7.72991 95.3711C7.84505 95.3711 7.9602 95.3711 8.07535 95.3561C8.24622 95.3337 8.36137 95.2402 8.36508 95.0532C8.36508 94.4474 8.36508 93.8453 8.36508 93.2395C8.36508 93.0488 8.24993 92.9665 8.07164 92.9553C7.98249 92.9516 7.89334 92.9516 7.8042 92.9516C6.98701 92.9516 6.16982 92.9516 5.35263 92.9516H5.34892Z" fill="white"/>
<path d="M30.6707 100.476C30.875 100.461 31.0347 100.442 31.1981 100.442C33.594 100.442 35.9861 100.442 38.3819 100.442C38.8178 100.442 39.0357 100.221 39.0357 99.7801C39.0357 99.3426 39.0394 98.905 39.0357 98.4637C39.0283 98.1421 38.9688 98.0898 38.6457 98.0711C38.5305 98.0636 38.4154 98.0711 38.3002 98.0711C36.5321 98.0711 34.7677 98.0711 32.9996 98.0711C32.8733 98.0711 32.7433 98.0711 32.617 98.0711C31.7701 98.0748 31.3318 97.7757 30.9901 96.9305C30.7784 96.4107 30.6781 95.8722 30.6744 95.3113C30.6669 94.511 30.6744 93.7144 30.6744 92.9142C30.6744 92.3644 30.7747 91.8372 31.0012 91.3398C31.1127 91.0967 31.2613 90.8649 31.4321 90.6592C31.6439 90.4049 31.9299 90.2703 32.2753 90.2703C34.7975 90.2703 37.3196 90.274 39.8417 90.2703C40.1649 90.2703 40.4138 90.3974 40.6218 90.6181C40.9226 90.9434 41.1529 91.3099 41.2347 91.7549C41.2867 92.0466 41.3647 92.3345 41.387 92.6262C41.4092 92.8955 41.3498 92.9366 41.0824 92.9516C40.9784 92.9553 40.8781 92.9516 40.7741 92.9516C38.4042 92.9516 36.0381 92.9516 33.6682 92.9516C33.0554 92.9516 33.0479 92.959 33.0442 93.5761C33.0442 94.0136 33.0405 94.4511 33.0442 94.8924C33.0479 95.2851 33.1296 95.3599 33.5234 95.3711C33.6274 95.3711 33.7277 95.3711 33.8317 95.3711C35.6258 95.3711 37.4162 95.3711 39.2103 95.3711C39.3514 95.3711 39.4926 95.3748 39.6337 95.3711C40.254 95.3561 40.6886 95.6553 40.9635 96.1901C41.2012 96.65 41.3832 97.1324 41.387 97.6597C41.3944 98.6395 41.4018 99.6193 41.3907 100.599C41.387 101.111 41.2272 101.586 40.9784 102.031C40.6292 102.663 40.0943 102.955 39.3737 102.951C37.145 102.944 34.9163 102.944 32.6913 102.951C31.811 102.951 31.2501 102.469 30.9715 101.736C30.8192 101.339 30.7524 100.928 30.6781 100.468L30.6707 100.476Z" fill="white"/>
<path d="M65.0036 96.6053C65.0036 97.8955 65.0073 99.1819 65.0036 100.472C64.9999 101.104 64.8179 101.687 64.4798 102.222C64.1752 102.708 63.7369 102.951 63.1686 102.951C60.8136 102.951 58.4586 102.951 56.1037 102.951C55.5019 102.951 55.0487 102.678 54.7553 102.151C54.4247 101.553 54.2761 100.91 54.2761 100.225C54.2761 98.5649 54.2761 96.9007 54.2761 95.2404C54.2761 94.4176 54.2761 93.5912 54.2761 92.7685C54.2798 92.1215 54.4544 91.5232 54.7999 90.9772C55.097 90.5098 55.5093 90.2629 56.0739 90.2629C58.4549 90.2704 60.8359 90.2704 63.2132 90.2629C63.8149 90.2629 64.2347 90.5359 64.517 91.0483C64.8253 91.6092 64.9999 92.2075 64.9961 92.8545C64.9961 94.1035 64.9961 95.3525 64.9961 96.6053H65.0036ZM62.6449 96.7175C62.6449 95.6106 62.6449 94.4999 62.6449 93.393C62.6449 93.0265 62.6003 92.9742 62.2586 92.9742C60.5165 92.9704 58.7781 92.9704 57.036 92.9742C56.6831 92.9742 56.646 93.019 56.6423 93.3855C56.6348 93.9016 56.6423 94.4176 56.6423 94.9337C56.6423 96.6091 56.6423 98.2844 56.6423 99.9597C56.6423 100.431 56.6683 100.453 57.1437 100.465C57.1697 100.465 57.1957 100.465 57.2217 100.465C58.8487 100.465 60.4719 100.465 62.0988 100.465C62.2028 100.465 62.3031 100.465 62.4071 100.453C62.5557 100.438 62.6374 100.356 62.6449 100.203C62.6486 100.098 62.6523 99.9971 62.6523 99.8924C62.6523 98.8341 62.6523 97.7796 62.6523 96.7212L62.6449 96.7175Z" fill="white"/>
<path d="M68.2835 93.7481C68.2463 93.9201 68.2092 94.0211 68.2018 94.1258C68.1869 94.4362 68.1795 94.7429 68.1795 95.0532C68.1795 97.4129 68.1795 99.7689 68.1795 102.129C68.1795 102.245 68.1795 102.36 68.1795 102.476C68.1721 102.936 68.1535 102.955 67.7003 102.955C67.3177 102.955 66.9314 102.955 66.5488 102.955C66.4225 102.955 66.2999 102.944 66.1402 102.936C66.1254 102.776 66.0994 102.637 66.0994 102.503C66.0994 98.662 66.0994 94.8214 66.0994 90.9808C66.0994 90.547 66.1179 90.5283 66.56 90.5283C67.5072 90.5283 68.4544 90.5358 69.4015 90.5208C69.6913 90.5171 69.8473 90.6405 69.9662 90.8836C70.9951 93.0114 72.0277 95.1355 73.0603 97.2596C73.4021 97.9627 73.7401 98.6694 74.0892 99.3725C74.1412 99.4809 74.2341 99.567 74.353 99.7203C74.3975 99.567 74.431 99.4884 74.4384 99.4099C74.4495 99.2827 74.4421 99.1518 74.4421 99.0247C74.4421 96.3958 74.4421 93.7668 74.4421 91.1379C74.4421 90.729 74.6501 90.5246 75.0661 90.5246C75.4227 90.5246 75.783 90.5208 76.1396 90.5246C76.4479 90.5321 76.4851 90.5732 76.4999 90.8911C76.5037 90.9696 76.4999 91.0444 76.4999 91.1229C76.4999 94.8588 76.4999 98.5984 76.4999 102.334C76.4999 102.521 76.4814 102.712 76.4665 102.929C76.2882 102.936 76.1508 102.951 76.0133 102.951C75.1033 102.951 74.197 102.936 73.2869 102.963C72.9526 102.97 72.7743 102.85 72.6369 102.562C72.128 101.497 71.6005 100.438 71.0879 99.3762C70.3079 97.757 69.5316 96.134 68.7515 94.5147C68.6624 94.3278 68.5769 94.1408 68.4804 93.9613C68.4469 93.9014 68.3875 93.8566 68.2798 93.7481H68.2835Z" fill="white"/>
<path d="M77.4805 96.6239C77.4805 94.7691 77.4805 92.9142 77.4805 91.0556C77.4805 91.0033 77.4805 90.9509 77.4805 90.9023C77.4842 90.4124 77.5102 90.3862 78.0116 90.3862C78.8697 90.3862 79.7277 90.3862 80.5858 90.3862C82.8628 90.3862 85.1435 90.3862 87.4204 90.3862C87.9962 90.3862 87.9962 90.3862 87.9999 90.9621C87.9999 91.5044 87.9999 92.0429 87.9999 92.5851C87.9999 92.974 87.9665 93.004 87.5839 93.0077C85.8938 93.0077 84.2037 93.0077 82.5136 93.0077C81.7856 93.0077 81.0538 93.0077 80.3258 93.0077C79.8577 93.0077 79.7797 93.0825 79.7797 93.5387C79.7797 95.588 79.7797 97.6373 79.7797 99.6866C79.7797 100.12 79.854 100.188 80.3109 100.188C82.6288 100.188 84.9429 100.188 87.2607 100.188C87.3759 100.188 87.491 100.188 87.6062 100.188C87.9442 100.199 87.9962 100.24 87.9999 100.565C88.0073 101.197 88.0073 101.829 87.9999 102.461C87.9999 102.779 87.959 102.813 87.6433 102.824C87.4019 102.832 87.1567 102.824 86.9153 102.824C83.9697 102.824 81.0278 102.824 78.0822 102.824C77.686 102.824 77.4879 102.626 77.4879 102.23C77.4879 100.36 77.4879 98.4937 77.4879 96.6239H77.4805Z" fill="white"/>
<path d="M22.8218 100.464C22.8812 100.786 22.7735 101.044 22.6992 101.295C22.5469 101.814 22.3612 102.323 21.8635 102.633C21.648 102.768 21.4214 102.824 21.1726 102.824C20.5597 102.824 19.9431 102.824 19.3302 102.824C17.6029 102.824 15.872 102.802 14.1448 102.832C13.3684 102.847 12.9115 102.499 12.5921 101.822C12.3172 101.239 12.2689 100.629 12.2615 100.012C12.2467 97.6672 12.2504 95.3188 12.2615 92.974C12.2615 92.2598 12.3767 91.5679 12.8038 90.9584C13.1084 90.5246 13.5133 90.289 14.0296 90.289C16.8452 90.2815 19.6645 90.2852 22.4801 90.289C22.8478 90.289 22.8664 90.3114 22.8701 90.6891C22.8738 91.3211 22.8738 91.9531 22.8701 92.5851C22.8701 92.9591 22.8515 92.9778 22.4764 92.9815C20.8643 92.9815 19.2485 92.9815 17.6364 92.9815C16.7895 92.9815 15.9463 92.9815 15.0994 92.9815C14.6462 92.9815 14.6016 93.0189 14.6016 93.4527C14.6016 95.6067 14.6016 97.757 14.6016 99.911C14.6016 100.001 14.6054 100.09 14.6239 100.18C14.6499 100.322 14.7354 100.412 14.8839 100.416C15.0102 100.42 15.1402 100.423 15.2665 100.423C17.6215 100.423 19.9802 100.423 22.3352 100.423C22.4949 100.423 22.6547 100.446 22.8218 100.461V100.464Z" fill="white"/>
<path d="M47.8502 90.1843C49.4251 90.1843 51.0001 90.1843 52.5713 90.1843C52.6864 90.1843 52.8016 90.1805 52.9167 90.188C53.1619 90.2067 53.2102 90.2479 53.2139 90.4947C53.2213 91.1902 53.225 91.8858 53.2139 92.5814C53.2102 92.8581 53.1545 92.8955 52.809 92.8992C51.8098 92.903 50.8106 92.8992 49.8151 92.8992C49.2951 92.8992 49.0351 93.1598 49.0351 93.6808C49.0351 96.5678 49.0351 99.4548 49.0351 102.342C49.0351 102.748 48.8271 102.953 48.4111 102.955C47.9876 102.955 47.5679 102.955 47.1444 102.955C46.6541 102.955 46.6355 102.936 46.6318 102.424C46.6318 101.018 46.6318 99.6156 46.6318 98.2095C46.6318 96.6875 46.6318 95.1692 46.6318 93.6472C46.6318 93.5574 46.6318 93.4677 46.6318 93.3779C46.6207 92.9666 46.5687 92.903 46.1601 92.903C45.1349 92.8992 44.1134 92.903 43.0882 92.903C42.6697 92.903 42.4604 92.6898 42.4604 92.2635C42.4604 91.7474 42.4604 91.2314 42.4604 90.719C42.4604 90.1955 42.4679 90.188 43.0065 90.188C44.6186 90.188 46.2307 90.188 47.8427 90.188L47.8502 90.1843Z" fill="white"/>
<path d="M0.0706969 14.0011C0.055839 13.8141 0.033552 13.6795 0.033552 13.5411C0.033552 9.18448 0.0298375 4.82784 0.026123 0.471194C0.026123 0.445017 0.026123 0.41884 0.026123 0.392663C0.0372665 0.0411396 0.0595535 0.0149623 0.393858 3.88455e-06C0.52015 -0.00373572 0.650158 3.88455e-06 0.77645 3.88455e-06C7.05022 3.88455e-06 13.324 3.88455e-06 19.5978 3.88455e-06C42.1113 3.88455e-06 64.6248 3.88455e-06 87.1346 3.88455e-06C87.9741 3.88455e-06 87.9073 -0.0822675 87.9073 0.759144C87.9073 25.2274 87.9073 49.6957 87.9073 74.1602V74.766C87.8813 74.7809 87.8515 74.7922 87.8255 74.8071C87.7253 74.7174 87.625 74.6314 87.5284 74.5379C86.1614 73.1617 84.7945 71.7893 83.4276 70.4131C83.0933 70.0765 82.7627 69.7362 82.421 69.4034C82.2835 69.2688 82.2092 69.1192 82.2204 68.9247C82.2278 68.7714 82.2204 68.6143 82.2204 68.461C82.2204 47.8595 82.2204 27.2617 82.2204 6.66024C82.2204 6.49196 82.2204 6.32368 82.2204 6.15914C82.2092 5.7777 82.1535 5.7216 81.7635 5.71038C81.5963 5.70665 81.4292 5.71038 81.2657 5.71038C59.2017 5.71038 37.1413 5.71038 15.0772 5.71038C12.1688 5.71038 9.26406 5.71038 6.35562 5.71038C5.71301 5.71038 5.69815 5.72534 5.69815 6.38725C5.69815 8.73199 5.69815 11.0805 5.69815 13.4252C5.69815 13.8091 5.50747 14.0011 5.12612 14.0011C3.60318 14.0011 2.08024 14.0011 0.553581 14.0011C0.405001 14.0011 0.252707 14.0011 0.0706969 14.0011Z" fill="white"/>
<path d="M66.1255 55.3388C66.5675 55.78 66.939 56.1465 67.3067 56.5205C68.6365 57.8593 69.9625 59.2018 71.2998 60.5331C71.5263 60.7575 71.6304 60.9893 71.6304 61.3147C71.6155 62.99 71.6192 64.6653 71.6266 66.3444C71.6304 67.7206 70.5569 68.7901 69.1936 68.7864C60.2566 68.7827 51.3158 68.7864 42.3787 68.7827C41.127 68.7827 40.2503 68.0048 39.9829 66.8007C39.9383 66.6025 39.9569 66.3893 39.9569 66.1836C39.9569 61.2735 39.9495 56.3597 39.9495 51.4496C39.9495 44.6921 39.9495 37.9384 39.9495 31.1809C39.9495 27.5198 39.9532 23.8588 39.9569 20.1977C39.9569 19.1992 40.4175 18.4812 41.2644 17.9988C41.5541 17.8342 41.8699 17.7258 42.2153 17.7408C42.3565 17.7482 42.4976 17.7408 42.6388 17.7408C51.4124 17.7408 60.1823 17.7408 68.9559 17.7408C69.3385 17.7408 69.7174 17.7295 70.0851 17.8903C70.7537 18.1783 71.2366 18.6345 71.4855 19.3338C71.5895 19.6293 71.6341 19.9284 71.6341 20.2426C71.6304 23.8401 71.6266 27.4376 71.6341 31.0351C71.6341 32.1719 71.1029 32.9497 70.1037 33.4022C69.8103 33.5331 69.4574 33.5593 69.1305 33.5668C68.2613 33.5892 67.3884 33.578 66.5192 33.5743C66.1515 33.5743 66.1069 33.5256 66.1069 33.1367C66.1032 32.0934 66.1069 31.05 66.1069 30.0029C66.1069 28.4547 66.1069 26.9103 66.1069 25.3621C66.1069 24.6964 65.8357 24.1617 65.2749 23.7989C64.9628 23.597 64.6174 23.4511 64.2311 23.4549C64.1531 23.4549 64.0788 23.4549 64.0008 23.4549C58.5331 23.4549 53.0653 23.4549 47.5976 23.4549C47.0367 23.4549 46.5501 23.6157 46.1155 23.9784C45.6995 24.3262 45.5286 24.7824 45.5026 25.2985C45.4766 25.8258 45.4952 26.3568 45.4952 26.8841C45.4952 29.255 45.4543 31.6297 45.5026 34.0006C45.6586 41.3863 45.5472 48.772 45.5546 56.1577C45.5546 57.8181 45.5026 59.4785 45.4952 61.1426C45.4952 61.7597 45.7255 62.2683 46.2084 62.6534C46.539 62.9189 46.9253 63.0349 47.3376 63.0835C47.4639 63.0985 47.5939 63.091 47.7202 63.091C53.1099 63.091 58.5033 63.091 63.8931 63.091C64.2237 63.091 64.5431 63.0611 64.87 62.9451C65.5757 62.6908 66.0995 62.014 66.1032 61.1651C66.1069 59.7066 66.1032 58.2519 66.1032 56.7935C66.1032 56.4457 66.1032 56.0979 66.1032 55.7501C66.1032 55.6492 66.118 55.5519 66.1329 55.3537L66.1255 55.3388Z" fill="white"/>
<path d="M82.3132 75.2109C82.4061 75.2969 82.5027 75.3792 82.5918 75.469C84.2671 77.1555 85.9386 78.8421 87.6212 80.5249C87.8292 80.7343 87.9184 80.9512 87.9147 81.2429C87.9035 82.1965 87.9147 83.1501 87.9072 84.1037C87.9072 84.5113 87.8812 84.5338 87.4652 84.5375C87.3612 84.5375 87.2609 84.5375 87.1569 84.5375C58.3733 84.5375 29.5898 84.5375 0.802452 84.5375C0.6353 84.5375 0.468147 84.5375 0.30471 84.5375C0.115271 84.5375 0.026123 84.4365 0.026123 84.2495C0.026123 84.1448 0.026123 84.0439 0.026123 83.9392C0.026123 79.762 0.026123 75.5849 0.026123 71.4077C0.026123 71.0064 0.221753 70.8057 0.613013 70.8057C2.10995 70.8057 3.61061 70.8057 5.10755 70.8057C5.15955 70.8057 5.21155 70.8057 5.25984 70.8057C5.66843 70.8131 5.69444 70.8318 5.69444 71.2507C5.69444 73.5318 5.69444 75.813 5.69444 78.0942C5.69444 78.8383 5.70186 78.8458 6.44848 78.8458C31.4433 78.8458 56.4381 78.8458 81.4329 78.8458C81.5592 78.8458 81.6892 78.8496 81.8155 78.8383C82.1312 78.8122 82.2167 78.7261 82.2204 78.4008C82.2278 77.7426 82.2204 77.0845 82.2204 76.43C82.2204 76.0336 82.2204 75.6372 82.2204 75.2408C82.2501 75.2296 82.2798 75.2221 82.3095 75.2109H82.3132Z" fill="white"/>
<path d="M18.606 44.4227C18.7546 44.4153 18.9032 44.404 19.0555 44.404C20.6415 44.404 22.2313 44.404 23.8174 44.404C24.278 44.404 24.7386 44.3554 25.1584 44.1311C25.6227 43.8805 26.0016 43.5477 26.0833 42.983C26.1241 42.6913 26.191 42.3996 26.191 42.1117C26.1984 36.6743 26.1984 31.2331 26.191 25.7958C26.191 25.4255 26.139 25.0478 26.0498 24.6926C25.931 24.2326 25.593 23.9147 25.1881 23.7053C24.8501 23.5333 24.4786 23.4473 24.0812 23.4473C18.6023 23.4585 13.1234 23.4585 7.64082 23.4473C7.21366 23.4473 6.83107 23.5557 6.47447 23.7652C5.92473 24.083 5.63871 24.5841 5.56814 25.2124C5.54585 25.3919 5.54957 25.5714 5.54957 25.7546C5.54957 28.0096 5.54957 30.2646 5.54957 32.5196C5.54957 33.1777 5.16326 33.5741 4.51322 33.5779C3.88547 33.5816 3.25773 33.5854 2.62998 33.5779C2.0468 33.5704 1.49334 33.4545 1.01046 33.088C0.397568 32.6243 0.0446911 32.0035 0.0409766 31.2444C0.0261186 27.5048 0.0298331 23.7689 0.0372621 20.0293C0.0372621 19.1243 0.709585 18.2605 1.53792 17.9164C1.83879 17.793 2.14709 17.7444 2.47397 17.7444C11.411 17.7481 20.3481 17.7444 29.2814 17.7444C30.3029 17.7444 31.0384 18.2231 31.4841 19.1355C31.6587 19.4908 31.7404 19.8797 31.7367 20.2911C31.7293 24.801 31.733 29.3147 31.7367 33.8247C31.7367 38.387 31.7367 42.9493 31.7367 47.5117C31.7367 48.6635 31.213 49.4712 30.1729 49.9387C30.0578 49.991 29.9315 50.0209 29.8052 50.0359C29.5897 50.0583 29.3706 50.0658 29.1552 50.0658C27.6062 50.0658 26.0573 50.0621 24.5083 50.0733C24.1926 50.0733 23.9549 49.9873 23.7283 49.7554C22.1051 48.1063 20.4707 46.472 18.8437 44.8304C18.7472 44.7331 18.658 44.6284 18.5689 44.5237C18.5837 44.4901 18.5986 44.4564 18.6134 44.4265L18.606 44.4227Z" fill="white"/>
<path d="M66.1403 44.6659C66.2963 44.808 66.4077 44.9052 66.5117 45.0137C68.1127 46.6591 69.7136 48.3083 71.322 49.9462C71.5374 50.1631 71.634 50.3875 71.634 50.6941C71.6229 51.9432 71.6303 53.1922 71.6266 54.4412C71.6266 54.5684 71.6154 54.6918 71.6043 54.9087C71.452 54.7928 71.348 54.7329 71.2663 54.6469C69.6245 52.9865 67.9864 51.3224 66.3446 49.662C66.1811 49.4975 66.0957 49.3217 66.0957 49.0824C66.1031 47.7174 66.0957 46.3525 66.0994 44.9875C66.0994 44.9015 66.1217 44.8192 66.144 44.6659H66.1403Z" fill="white"/>
<path d="M80.6936 95.4721C80.8347 95.4647 80.9721 95.4497 81.1096 95.4497C83.03 95.4497 84.9466 95.4497 86.867 95.4497C86.893 95.4497 86.919 95.4497 86.945 95.4497C87.3499 95.4572 87.3722 95.4759 87.3759 95.8947C87.3759 96.4856 87.3796 97.0802 87.3759 97.671C87.3722 98.0413 87.3165 98.0974 86.9488 98.0974C84.9801 98.0974 83.0077 98.0974 81.039 98.0974C80.7047 98.0974 80.649 98.0562 80.6453 97.772C80.6378 97.0652 80.6453 96.3547 80.649 95.6479C80.649 95.6105 80.6676 95.5731 80.6973 95.4721H80.6936Z" fill="white"/>
</g>
<defs>
<clipPath id="clip0_343_159">
<rect width="88" height="103" fill="white"/>
</clipPath>
</defs>
</svg>
