<svg width="24" height="24" viewBox="0 0 24 24" fill="none" xmlns="http://www.w3.org/2000/svg">
<path d="M17 6.28596H18.4286M7.71429 2.00024H16.2857C17.8012 2.00024 19.2547 2.60228 20.3263 3.67392C21.398 4.74556 22 6.19901 22 7.71453V16.286C22 17.8015 21.398 19.2549 20.3263 20.3266C19.2547 21.3982 17.8012 22.0002 16.2857 22.0002H7.71429C6.19876 22.0002 4.74531 21.3982 3.67368 20.3266C2.60204 19.2549 2 17.8015 2 16.286V7.71453C2 6.19901 2.60204 4.74556 3.67368 3.67392C4.74531 2.60228 6.19876 2.00024 7.71429 2.00024ZM12 16.286C10.8634 16.286 9.77327 15.8344 8.96954 15.0307C8.16582 14.227 7.71429 13.1369 7.71429 12.0002C7.71429 10.8636 8.16582 9.77351 8.96954 8.96979C9.77327 8.16606 10.8634 7.71453 12 7.71453C13.1366 7.71453 14.2267 8.16606 15.0305 8.96979C15.8342 9.77351 16.2857 10.8636 16.2857 12.0002C16.2857 13.1369 15.8342 14.227 15.0305 15.0307C14.2267 15.8344 13.1366 16.286 12 16.286Z" stroke="#EBECED" stroke-width="1.6"/>
</svg>
